<svg width="154" height="155" viewBox="0 0 154 155" fill="none" xmlns="http://www.w3.org/2000/svg">
<path d="M142.893 0H11.1066C4.97229 0 0 5.00458 0 11.1787V143.821C0 149.995 4.97229 155 11.1066 155H82.2637V95.0586H62.2617V71.5967H82.2637V54.3302C82.2637 34.3071 94.4089 23.4087 112.155 23.4087C120.654 23.4087 127.959 24.0461 130.088 24.3311V45.2588H117.851C108.195 45.2588 106.326 49.8767 106.326 56.6539V71.5967H129.411L126.403 95.0586H106.326V155H142.893C149.028 155 154 149.995 154 143.821V11.1787C154 5.00458 149.028 0 142.893 0V0Z" fill="#333333"/>
</svg>
