<svg width="156" height="156" viewBox="0 0 156 156" fill="none" xmlns="http://www.w3.org/2000/svg">
<g clip-path="url(#clip0)">
<path d="M155.847 45.8644C155.482 37.5755 154.142 31.877 152.221 26.9392C150.241 21.6978 147.193 17.0051 143.2 13.1041C139.299 9.14241 134.576 6.06399 129.395 4.11408C124.429 2.19394 118.76 0.85353 110.471 0.488071C102.12 0.0916621 99.4692 0 78.2893 0C57.1094 0 54.4583 0.0916621 46.1385 0.457121C37.8496 0.822579 32.1511 2.16418 27.2144 4.08313C21.9718 6.06399 17.2792 9.11146 13.3782 13.1041C9.41646 17.0051 6.33923 21.7287 4.38813 26.9094C2.46799 31.877 1.12758 37.5446 0.762119 45.8335C0.36571 54.1843 0.274048 56.8353 0.274048 78.0152C0.274048 99.1952 0.36571 101.846 0.731168 110.166C1.09663 118.455 2.43823 124.153 4.35837 129.091C6.33923 134.333 9.41646 139.025 13.3782 142.926C17.2792 146.888 22.0027 149.966 27.1834 151.916C32.1511 153.837 37.8186 155.177 46.1087 155.542C54.4274 155.909 57.0796 156 78.2595 156C99.4394 156 102.09 155.909 110.41 155.542C118.699 155.177 124.398 153.837 129.334 151.916C139.818 147.863 148.107 139.574 152.161 129.091C154.08 124.124 155.421 118.455 155.787 110.166C156.152 101.846 156.244 99.1952 156.244 78.0152C156.244 56.8353 156.213 54.1843 155.847 45.8644ZM141.799 109.557C141.464 117.175 140.184 121.289 139.117 124.032C136.496 130.828 131.102 136.222 124.306 138.843C121.563 139.91 117.42 141.19 109.831 141.524C101.602 141.891 99.1347 141.981 78.3202 141.981C57.5058 141.981 55.0071 141.891 46.8087 141.524C39.19 141.19 35.0759 139.91 32.3332 138.843C28.9512 137.593 25.8728 135.612 23.3741 133.022C20.7838 130.492 18.8029 127.445 17.553 124.063C16.4864 121.32 15.2067 117.175 14.8721 109.588C14.5055 101.359 14.415 98.8904 14.415 78.076C14.415 57.2615 14.5055 54.7628 14.8721 46.5656C15.2067 38.9469 16.4864 34.8328 17.553 32.0901C18.8029 28.7069 20.7838 25.6297 23.4051 23.1298C25.9335 20.5395 28.981 18.5586 32.3641 17.3099C35.1069 16.2433 39.2519 14.9636 46.8396 14.6279C55.0678 14.2624 57.5367 14.1707 78.35 14.1707C99.1954 14.1707 101.663 14.2624 109.862 14.6279C117.48 14.9636 121.594 16.2433 124.337 17.3099C127.719 18.5586 130.797 20.5395 133.296 23.1298C135.886 25.6595 137.867 28.7069 139.117 32.0901C140.184 34.8328 141.464 38.9767 141.799 46.5656C142.165 54.7938 142.256 57.2615 142.256 78.076C142.256 98.8904 142.165 101.328 141.799 109.557Z" fill="#333333"/>
<path d="M78.2893 37.941C56.1653 37.941 38.215 55.8901 38.215 78.0152C38.215 100.14 56.1653 118.089 78.2893 118.089C100.414 118.089 118.363 100.14 118.363 78.0152C118.363 55.8901 100.414 37.941 78.2893 37.941ZM78.2893 104.01C63.9364 104.01 52.2941 92.3693 52.2941 78.0152C52.2941 63.6612 63.9364 52.0201 78.2893 52.0201C92.6433 52.0201 104.284 63.6612 104.284 78.0152C104.284 92.3693 92.6433 104.01 78.2893 104.01Z" fill="#333333"/>
<path d="M129.305 36.3566C129.305 41.523 125.116 45.7121 119.948 45.7121C114.782 45.7121 110.592 41.523 110.592 36.3566C110.592 31.189 114.782 27.0011 119.948 27.0011C125.116 27.0011 129.305 31.189 129.305 36.3566Z" fill="#333333"/>
</g>
<defs>
<clipPath id="clip0">
<rect width="156" height="156" fill="white"/>
</clipPath>
</defs>
</svg>
