<svg width="127" height="155" viewBox="0 0 127 155" fill="none" xmlns="http://www.w3.org/2000/svg">
<path d="M65.6054 0C23.116 0.00645833 0.53125 27.2283 0.53125 56.9108C0.53125 70.6735 8.22313 87.8462 20.5392 93.2906C24.0525 94.8729 23.5875 92.9419 26.61 81.3815C26.849 80.4192 26.7262 79.586 25.9512 78.6883C8.34583 58.3252 22.5154 16.4623 63.0931 16.4623C121.819 16.4623 110.846 97.721 73.3102 97.721C63.6356 97.721 56.4281 90.126 58.7079 80.7292C61.4721 69.5369 66.8842 57.505 66.8842 49.4385C66.8842 29.1077 36.5946 32.1238 36.5946 59.0615C36.5946 67.3862 39.5396 73.005 39.5396 73.005C39.5396 73.005 29.794 112.375 27.9856 119.731C24.9244 132.183 28.399 152.339 28.7025 154.076C28.8898 155.032 29.9619 155.336 30.5625 154.548C31.5248 153.289 43.3048 136.484 46.605 124.336C47.8062 119.912 52.734 101.958 52.734 101.958C55.9825 107.822 65.3471 112.73 75.3252 112.73C105.008 112.73 126.462 86.6385 126.462 54.2629C126.359 23.2242 99.7958 0 65.6054 0V0Z" fill="#333333"/>
</svg>
