<svg width="301" height="301" viewBox="0 0 301 301" fill="none" xmlns="http://www.w3.org/2000/svg">
<g clip-path="url(#clip0)">
<path d="M128.741 221.057C133.611 221.057 137.56 217.108 137.56 212.238C137.56 207.367 133.611 203.419 128.741 203.419C123.871 203.419 119.922 207.367 119.922 212.238C119.922 217.108 123.871 221.057 128.741 221.057Z" fill="#C8493F"/>
<path d="M229.862 79.957C234.733 79.957 238.681 76.0087 238.681 71.1383C238.681 66.2678 234.733 62.3195 229.862 62.3195C224.992 62.3195 221.044 66.2678 221.044 71.1383C221.044 76.0087 224.992 79.957 229.862 79.957Z" fill="#C8493F"/>
<path d="M135.796 132.869C140.666 132.869 144.615 128.921 144.615 124.051C144.615 119.18 140.666 115.232 135.796 115.232C130.926 115.232 126.977 119.18 126.977 124.051C126.977 128.921 130.926 132.869 135.796 132.869Z" fill="#C8493F"/>
<path d="M298.417 47.2648L253.735 2.5833C252.081 0.929493 249.838 0 247.5 0H178.714C176.372 0 174.125 0.931257 172.472 2.58918L7.73618 167.662C-2.57938 177.977 -2.57938 194.761 7.73618 205.077L95.9234 293.264C106.238 303.579 123.023 303.579 133.342 293.26L298.421 127.93C300.072 126.276 300.999 124.035 300.999 121.699V53.5008C301 51.1621 300.071 48.9186 298.417 47.2648ZM135.796 97.5944C150.384 97.5944 162.252 109.463 162.252 124.051C162.252 138.639 150.384 150.507 135.796 150.507C121.208 150.507 109.34 138.639 109.34 124.051C109.34 109.463 121.207 97.5944 135.796 97.5944ZM128.741 238.694C114.153 238.694 102.285 226.826 102.285 212.238C102.285 197.65 114.153 185.782 128.741 185.782C143.329 185.782 155.197 197.65 155.197 212.238C155.197 226.826 143.329 238.694 128.741 238.694ZM187.218 168.024C73.8778 186.915 81.0221 185.783 79.9333 185.783C75.7003 185.783 71.9641 182.727 71.2457 178.413C70.4449 173.609 73.6902 169.065 78.4947 168.264L184.319 150.627C189.119 149.824 193.667 153.071 194.468 157.876C195.268 162.68 192.022 167.224 187.218 168.024ZM229.862 97.5944C215.274 97.5944 203.406 85.7262 203.406 71.1383C203.406 56.5503 215.274 44.6821 229.862 44.6821C244.45 44.6821 256.318 56.5503 256.318 71.1383C256.318 85.7262 244.45 97.5944 229.862 97.5944Z" fill="#C8493F"/>
</g>
<defs>
<clipPath id="clip0">
<rect width="301" height="301" fill="white"/>
</clipPath>
</defs>
</svg>
