<svg width="155" height="126" viewBox="0 0 155 126" fill="none" xmlns="http://www.w3.org/2000/svg">
<path d="M155 14.9091C149.236 17.4375 143.094 19.1134 136.691 19.9272C143.278 15.9941 148.306 9.81344 150.67 2.36375C144.528 6.02562 137.747 8.61219 130.52 10.0556C124.688 3.84594 116.376 0 107.308 0C89.7159 0 75.5528 14.2794 75.5528 31.7847C75.5528 34.3034 75.7659 36.7253 76.2891 39.0309C49.8713 37.7425 26.4953 25.0809 10.7919 5.79313C8.05031 10.5497 6.44219 15.9941 6.44219 21.855C6.44219 32.86 12.1094 42.6153 20.5569 48.2631C15.4516 48.1662 10.4431 46.6841 6.2 44.3494C6.2 44.4463 6.2 44.5722 6.2 44.6981C6.2 60.14 17.2147 72.9662 31.6587 75.9209C29.0722 76.6281 26.2531 76.9672 23.3275 76.9672C21.2931 76.9672 19.2394 76.8509 17.3116 76.4247C21.4287 89.0087 33.1119 98.2603 47.0038 98.5606C36.1925 107.018 22.4653 112.113 7.60469 112.113C4.99875 112.113 2.49937 111.997 0 111.677C14.0759 120.755 30.7578 125.938 48.7475 125.938C107.221 125.938 139.19 77.5 139.19 35.5144C139.19 34.1097 139.142 32.7534 139.074 31.4069C145.38 26.9313 150.679 21.3416 155 14.9091Z" fill="#333333"/>
</svg>
